<svg id="visual" viewBox="0 0 960 300" width="960" height="300" xmlns="http://www.w3.org/2000/svg" xmlns:xlink="http://www.w3.org/1999/xlink" version="1.1"><rect width="960" height="300" fill="#27193a"></rect><g><g transform="translate(338 47)"><path d="M0 -9.6L7.5 -6L9.3 2.1L4.2 8.6L-4.2 8.6L-9.3 2.1L-7.5 -6Z" fill="#1c112a"></path></g><g transform="translate(157 64)"><path d="M0 -7L5.5 -4.4L6.8 1.6L3 6.3L-3 6.3L-6.8 1.6L-5.5 -4.4Z" fill="#1c112a"></path></g><g transform="translate(594 173)"><path d="M0 -5L3.9 -3.1L4.9 1.1L2.2 4.5L-2.2 4.5L-4.9 1.1L-3.9 -3.1Z" fill="#1c112a"></path></g><g transform="translate(50 34)"><path d="M0 -8L6.3 -5L7.8 1.8L3.5 7.2L-3.5 7.2L-7.8 1.8L-6.3 -5Z" fill="#1c112a"></path></g><g transform="translate(460 146)"><path d="M0 -7L5.5 -4.4L6.8 1.6L3 6.3L-3 6.3L-6.8 1.6L-5.5 -4.4Z" fill="#1c112a"></path></g><g transform="translate(184 286)"><path d="M0 -7L5.5 -4.4L6.8 1.6L3 6.3L-3 6.3L-6.8 1.6L-5.5 -4.4Z" fill="#1c112a"></path></g><g transform="translate(336 165)"><path d="M0 -8L6.3 -5L7.8 1.8L3.5 7.2L-3.5 7.2L-7.8 1.8L-6.3 -5Z" fill="#1c112a"></path></g><g transform="translate(914 38)"><path d="M0 -5L3.9 -3.1L4.9 1.1L2.2 4.5L-2.2 4.5L-4.9 1.1L-3.9 -3.1Z" fill="#1c112a"></path></g><g transform="translate(745 67)"><path d="M0 -5L3.9 -3.1L4.9 1.1L2.2 4.5L-2.2 4.5L-4.9 1.1L-3.9 -3.1Z" fill="#1c112a"></path></g><g transform="translate(554 195)"><path d="M0 -7L5.5 -4.4L6.8 1.6L3 6.3L-3 6.3L-6.8 1.6L-5.5 -4.4Z" fill="#1c112a"></path></g><g transform="translate(928 174)"><path d="M0 -6L4.7 -3.7L5.8 1.3L2.6 5.4L-2.6 5.4L-5.8 1.3L-4.7 -3.7Z" fill="#1c112a"></path></g><g transform="translate(76 253)"><path d="M0 -6L4.7 -3.7L5.8 1.3L2.6 5.4L-2.6 5.4L-5.8 1.3L-4.7 -3.7Z" fill="#1c112a"></path></g><g transform="translate(632 79)"><path d="M0 -6L4.7 -3.7L5.8 1.3L2.6 5.4L-2.6 5.4L-5.8 1.3L-4.7 -3.7Z" fill="#1c112a"></path></g><g transform="translate(503 191)"><path d="M0 -8L6.3 -5L7.8 1.8L3.5 7.2L-3.5 7.2L-7.8 1.8L-6.3 -5Z" fill="#1c112a"></path></g></g></svg>